<svg width="50" height="38" viewBox="0 0 50 38" fill="none" xmlns="http://www.w3.org/2000/svg">
<path d="M9.92446 36V9.31967L24.7173 18.2131L40.9058 9.31967V18.2131M40.9058 26.8197V30.8361M40.9058 30.8361L49 36V16.7787L40.9058 21.9426V30.8361ZM7.69866 22L1 23.5V13L7.69866 15.5M35.045 4.72951C35.045 6.78926 33.477 8.45902 31.5428 8.45902C29.6086 8.45902 28.0406 6.78926 28.0406 4.72951C28.0406 2.66976 29.6086 1 31.5428 1C33.477 1 35.045 2.66976 35.045 4.72951ZM22.6378 4.72951C22.6378 6.78926 21.0699 8.45902 19.1357 8.45902C17.2015 8.45902 15.6335 6.78926 15.6335 4.72951C15.6335 2.66976 17.2015 1 19.1357 1C21.0699 1 22.6378 2.66976 22.6378 4.72951Z" stroke="#FF0000" stroke-width="2"/>
</svg>
